<svg width="20" height="21" viewBox="0 0 20 21" fill="none" xmlns="http://www.w3.org/2000/svg">
<g id="icon / ionicons / filled / bag">
<path id="Vector" d="M17.7598 7.11719C17.6439 7.0005 17.506 6.90797 17.3542 6.84494C17.2023 6.78191 17.0394 6.74964 16.875 6.75H14.375V6.125C14.375 4.96468 13.9141 3.85188 13.0936 3.03141C12.2731 2.21094 11.1603 1.75 10 1.75C8.83968 1.75 7.72688 2.21094 6.90641 3.03141C6.08594 3.85188 5.625 4.96468 5.625 6.125V6.75H3.125C2.79348 6.75 2.47554 6.8817 2.24112 7.11612C2.0067 7.35054 1.875 7.66848 1.875 8V16.4375C1.875 17.9609 3.16406 19.25 4.6875 19.25H15.3125C16.0494 19.2502 16.7572 18.9621 17.2844 18.4473C17.5497 18.1941 17.761 17.8899 17.9055 17.5529C18.0499 17.2158 18.1246 16.853 18.125 16.4863V8C18.1255 7.83601 18.0935 7.67355 18.0308 7.52201C17.9681 7.37048 17.876 7.23288 17.7598 7.11719ZM6.875 6.125C6.875 5.2962 7.20424 4.50134 7.79029 3.91529C8.37634 3.32924 9.1712 3 10 3C10.8288 3 11.6237 3.32924 12.2097 3.91529C12.7958 4.50134 13.125 5.2962 13.125 6.125V6.75H6.875V6.125Z" fill="#22431F"/>
</g>
</svg>
