<svg width="20" height="21" viewBox="0 0 20 21" fill="none" xmlns="http://www.w3.org/2000/svg">
<g id="icon / heroicons / Solid / currency-dollar">
<g id="Icon">
<path d="M8.43338 7.91784C8.58818 7.81464 8.77939 7.7224 9 7.65101L9.00001 9.34899C8.77939 9.2776 8.58818 9.18536 8.43338 9.08216C8.06927 8.83942 8 8.6139 8 8.5C8 8.3861 8.06927 8.16058 8.43338 7.91784Z" fill="#22431F"/>
<path d="M11 13.349L11 11.651C11.2206 11.7224 11.4118 11.8146 11.5666 11.9178C11.9308 12.1606 12 12.3861 12 12.5C12 12.6139 11.9308 12.8394 11.5666 13.0822C11.4118 13.1854 11.2206 13.2776 11 13.349Z" fill="#22431F"/>
<path fill-rule="evenodd" clip-rule="evenodd" d="M10 18.5C14.4183 18.5 18 14.9183 18 10.5C18 6.08172 14.4183 2.5 10 2.5C5.58172 2.5 2 6.08172 2 10.5C2 14.9183 5.58172 18.5 10 18.5ZM11 5.5C11 4.94772 10.5523 4.5 10 4.5C9.44772 4.5 9 4.94772 9 5.5V5.59199C8.3784 5.70873 7.80348 5.93407 7.32398 6.25374C6.6023 6.73485 6 7.50933 6 8.5C6 9.49067 6.6023 10.2651 7.32398 10.7463C7.80348 11.0659 8.37841 11.2913 9.00001 11.408L9.00002 13.3492C8.60902 13.2223 8.31917 13.0319 8.15667 12.8446C7.79471 12.4275 7.16313 12.3827 6.74599 12.7447C6.32885 13.1067 6.28411 13.7382 6.64607 14.1554C7.20855 14.8036 8.05956 15.2308 9 15.4076L9 15.5C8.99999 16.0523 9.44769 16.5 9.99998 16.5C10.5523 16.5 11 16.0523 11 15.5L11 15.408C11.6216 15.2913 12.1965 15.0659 12.676 14.7463C13.3977 14.2651 14 13.4907 14 12.5C14 11.5093 13.3977 10.7348 12.676 10.2537C12.1965 9.93407 11.6216 9.70873 11 9.59199L11 7.65075C11.391 7.77771 11.6808 7.9681 11.8434 8.15538C12.2053 8.57252 12.8369 8.61726 13.254 8.2553C13.6712 7.89335 13.7159 7.26176 13.354 6.84462C12.7915 6.19637 11.9405 5.76915 11 5.59236V5.5Z" fill="#22431F"/>
</g>
</g>
</svg>
