<svg width="20" height="17" viewBox="0 0 20 17" fill="none" xmlns="http://www.w3.org/2000/svg">
<g id="icon / jam-icons / filled / document-f">
<path id="Vector" d="M5.83325 1.55566H14.1666C14.8296 1.55566 15.4655 1.77516 15.9344 2.16586C16.4032 2.55656 16.6666 3.08646 16.6666 3.639V13.3612C16.6666 13.9138 16.4032 14.4437 15.9344 14.8344C15.4655 15.2251 14.8296 15.4446 14.1666 15.4446H5.83325C5.17021 15.4446 4.53433 15.2251 4.06548 14.8344C3.59664 14.4437 3.33325 13.9138 3.33325 13.3612V3.639C3.33325 3.08646 3.59664 2.55656 4.06548 2.16586C4.53433 1.77516 5.17021 1.55566 5.83325 1.55566V1.55566ZM6.66659 6.41677C6.44557 6.41677 6.23361 6.48994 6.07733 6.62017C5.92105 6.75041 5.83325 6.92704 5.83325 7.11122C5.83325 7.2954 5.92105 7.47203 6.07733 7.60226C6.23361 7.7325 6.44557 7.80566 6.66659 7.80566H13.3333C13.5543 7.80566 13.7662 7.7325 13.9225 7.60226C14.0788 7.47203 14.1666 7.2954 14.1666 7.11122C14.1666 6.92704 14.0788 6.75041 13.9225 6.62017C13.7662 6.48994 13.5543 6.41677 13.3333 6.41677H6.66659ZM6.66659 11.9723C6.44557 11.9723 6.23361 12.0455 6.07733 12.1757C5.92105 12.306 5.83325 12.4826 5.83325 12.6668C5.83325 12.851 5.92105 13.0276 6.07733 13.1578C6.23361 13.2881 6.44557 13.3612 6.66659 13.3612H10.8333C11.0543 13.3612 11.2662 13.2881 11.4225 13.1578C11.5788 13.0276 11.6666 12.851 11.6666 12.6668C11.6666 12.4826 11.5788 12.306 11.4225 12.1757C11.2662 12.0455 11.0543 11.9723 10.8333 11.9723H6.66659ZM6.66659 3.639C6.44557 3.639 6.23361 3.71216 6.07733 3.8424C5.92105 3.97263 5.83325 4.14926 5.83325 4.33344C5.83325 4.51762 5.92105 4.69425 6.07733 4.82449C6.23361 4.95472 6.44557 5.02789 6.66659 5.02789H13.3333C13.5543 5.02789 13.7662 4.95472 13.9225 4.82449C14.0788 4.69425 14.1666 4.51762 14.1666 4.33344C14.1666 4.14926 14.0788 3.97263 13.9225 3.8424C13.7662 3.71216 13.5543 3.639 13.3333 3.639H6.66659ZM6.66659 9.19455C6.44557 9.19455 6.23361 9.26772 6.07733 9.39795C5.92105 9.52818 5.83325 9.70482 5.83325 9.889C5.83325 10.0732 5.92105 10.2498 6.07733 10.38C6.23361 10.5103 6.44557 10.5834 6.66659 10.5834H13.3333C13.5543 10.5834 13.7662 10.5103 13.9225 10.38C14.0788 10.2498 14.1666 10.0732 14.1666 9.889C14.1666 9.70482 14.0788 9.52818 13.9225 9.39795C13.7662 9.26772 13.5543 9.19455 13.3333 9.19455H6.66659Z" fill="#22431F"/>
</g>
</svg>
