<svg width="13" height="14" viewBox="0 0 13 14" fill="none" xmlns="http://www.w3.org/2000/svg">
<g id="icon / iconoir / page-edit">
<path id="Vector" d="M10.8333 6.99992V3.61371C10.8333 3.52751 10.7991 3.44485 10.7381 3.38389L9.03263 1.67844C8.97169 1.61749 8.88903 1.58325 8.80285 1.58325H2.49163C2.31213 1.58325 2.16663 1.72876 2.16663 1.90825V12.0916C2.16663 12.2711 2.31213 12.4166 2.49163 12.4166H5.95829" stroke="#8A8A8A" stroke-linecap="round" stroke-linejoin="round"/>
<path id="Vector_2" d="M4.33337 8.08333H5.95837M4.33337 5.91667H8.66671H4.33337ZM4.33337 3.75H6.50004H4.33337Z" stroke="#8A8A8A" stroke-linecap="round" stroke-linejoin="round"/>
<path id="Vector_3" d="M8.66663 3.42492V1.77476C8.66663 1.66899 8.75237 1.58325 8.85816 1.58325C8.90891 1.58325 8.95761 1.60343 8.99358 1.63934L10.7772 3.423C10.8131 3.45891 10.8333 3.50762 10.8333 3.55841C10.8333 3.66418 10.7475 3.74992 10.6418 3.74992H8.99163C8.81212 3.74992 8.66663 3.60441 8.66663 3.42492Z" fill="#8A8A8A" stroke="#8A8A8A" stroke-linecap="round" stroke-linejoin="round"/>
<path id="Vector_4" d="M9.72508 9.67562L10.5841 10.5346M9.72508 9.67562L10.2668 9.13395C10.5039 8.89676 10.8885 8.89676 11.1257 9.13395C11.3629 9.37115 11.3629 9.75573 11.1257 9.99293L10.5841 10.5346L9.72508 9.67562ZM9.72508 9.67562L8.10491 11.2958C8.02371 11.377 7.97041 11.4819 7.95275 11.5953L7.82129 12.4384L8.66428 12.307C8.77776 12.2893 8.88263 12.236 8.96383 12.1548L10.5841 10.5346L9.72508 9.67562Z" stroke="#8A8A8A" stroke-linecap="round" stroke-linejoin="round"/>
</g>
</svg>
