<svg width="24" height="24" viewBox="0 0 24 24" fill="none" xmlns="http://www.w3.org/2000/svg">
<g id="icon / jam-icons / filled / filter-f">
<path id="Vector" d="M4.08 3.35791H19.92C20.1084 3.35803 20.2928 3.41133 20.4522 3.51169C20.6116 3.61205 20.7394 3.75538 20.8209 3.92518C20.9024 4.09498 20.9343 4.28434 20.9129 4.47147C20.8915 4.6586 20.8177 4.83588 20.7 4.98291L14.22 13.0839C14.0778 13.2612 14.0002 13.4816 14 13.7089V18.8579C14 19.0132 13.9639 19.1663 13.8944 19.3051C13.825 19.444 13.7242 19.5648 13.6 19.6579L11.6 21.1579C11.4514 21.2693 11.2748 21.3372 11.0898 21.3539C10.9048 21.3705 10.7189 21.3354 10.5528 21.2523C10.3867 21.1693 10.247 21.0416 10.1494 20.8836C10.0517 20.7257 10 20.5436 10 20.3579V13.7079C9.9996 13.481 9.92202 13.2609 9.78 13.0839L3.3 4.98291C3.18229 4.83588 3.10849 4.6586 3.0871 4.47147C3.06571 4.28434 3.0976 4.09498 3.1791 3.92518C3.26061 3.75538 3.38841 3.61205 3.54779 3.51169C3.70717 3.41133 3.89166 3.35803 4.08 3.35791Z" fill="white"/>
</g>
</svg>
