<svg width="24" height="25" viewBox="0 0 24 25" fill="none" xmlns="http://www.w3.org/2000/svg">
<g id="icon eye-off">
<path id="Vector" d="M3 3.5L21 21.5" stroke="#697077" stroke-width="1.5" stroke-linecap="round" stroke-linejoin="round"/>
<path id="Vector_2" d="M10.5 11.1771C10.1888 11.5296 10 11.9928 10 12.5C10 13.6045 10.8954 14.5 12 14.5C12.5072 14.5 12.9703 14.3112 13.3229 14" stroke="#697077" stroke-width="1.5" stroke-linecap="round" stroke-linejoin="round"/>
<path id="Vector_3" d="M7.36185 8.06116C5.68002 9.23974 4.27894 10.9189 3 12.5001C4.88856 15.4911 8.2817 18.5001 12 18.5001C13.5499 18.5001 15.0434 17.9773 16.3949 17.1509" stroke="#697077" stroke-width="1.5" stroke-linecap="round" stroke-linejoin="round"/>
<path id="Vector_4" d="M12 6.5C16.0084 6.5 18.7015 9.6582 21 12.5C20.6815 13.0043 20.3203 13.5092 19.922 14" stroke="#697077" stroke-width="1.5" stroke-linecap="round" stroke-linejoin="round"/>
</g>
</svg>
