<svg width="20" height="21" viewBox="0 0 20 21" fill="none" xmlns="http://www.w3.org/2000/svg">
<g id="Interface / Log_Out">
<path id="Vector" d="M9.99992 12.9999L12.4999 10.4999M12.4999 10.4999L9.99992 7.99992M12.4999 10.4999H3.33325M7.49992 6.54041V6.50008C7.49992 5.56666 7.49992 5.0996 7.68157 4.74308C7.84136 4.42948 8.09615 4.1747 8.40975 4.01491C8.76627 3.83325 9.23333 3.83325 10.1667 3.83325H14.0001C14.9335 3.83325 15.3996 3.83325 15.7561 4.01491C16.0697 4.1747 16.3253 4.42948 16.4851 4.74308C16.6666 5.09925 16.6666 5.56575 16.6666 6.49734V14.5029C16.6666 15.4345 16.6666 15.9003 16.4851 16.2565C16.3253 16.5701 16.0697 16.8253 15.7561 16.9851C15.3999 17.1666 14.9341 17.1666 14.0025 17.1666H10.164C9.23241 17.1666 8.76592 17.1666 8.40975 16.9851C8.09615 16.8253 7.84136 16.5698 7.68157 16.2562C7.49992 15.8997 7.49992 15.4333 7.49992 14.4999V14.4583" stroke="#22431F" stroke-width="2" stroke-linecap="round" stroke-linejoin="round"/>
</g>
</svg>
