<svg width="20" height="21" viewBox="0 0 20 21" fill="none" xmlns="http://www.w3.org/2000/svg">
<g id="icon / iconoir / settings">
<path id="Vector" d="M10 13C11.3807 13 12.5 11.8807 12.5 10.5C12.5 9.11925 11.3807 8 10 8C8.61925 8 7.5 9.11925 7.5 10.5C7.5 11.8807 8.61925 13 10 13Z" stroke="#22431F" stroke-width="1.5" stroke-linecap="round" stroke-linejoin="round"/>
<path id="Vector_2" d="M16.3521 9.16292L15.4373 6.95408L16.6667 5.50008L15.0001 3.83341L13.554 5.06921L11.2982 4.14153L10.7795 2.16675H9.15092L8.62433 4.16769L6.42042 5.09672L5.00008 3.83341L3.33341 5.50008L4.54456 6.99079L3.64383 9.20533L1.66675 9.66675V11.3334L3.66767 11.8797L4.59654 14.0832L3.33341 15.5001L5.00008 17.1667L6.49272 15.9503L8.66425 16.8437L9.16675 18.8334H10.8334L11.3372 16.8444L13.546 15.9297C13.9142 16.1928 15.0001 17.1667 15.0001 17.1667L16.6667 15.5001L15.43 14.0412L16.345 11.8317L18.3333 11.3144L18.3334 9.66675L16.3521 9.16292Z" stroke="#22431F" stroke-width="1.5" stroke-linecap="round" stroke-linejoin="round"/>
</g>
</svg>
