<svg width="20" height="21" viewBox="0 0 20 21" fill="none" xmlns="http://www.w3.org/2000/svg">
<path d="M13 6.5C13 8.15685 11.6569 9.5 10 9.5C8.34315 9.5 7 8.15685 7 6.5C7 4.84315 8.34315 3.5 10 3.5C11.6569 3.5 13 4.84315 13 6.5Z" fill="#1E3B1B"/>
<path d="M18 8.5C18 9.60457 17.1046 10.5 16 10.5C14.8954 10.5 14 9.60457 14 8.5C14 7.39543 14.8954 6.5 16 6.5C17.1046 6.5 18 7.39543 18 8.5Z" fill="#1E3B1B"/>
<path d="M14 15.5C14 13.2909 12.2091 11.5 10 11.5C7.79086 11.5 6 13.2909 6 15.5V18.5H14V15.5Z" fill="#1E3B1B"/>
<path d="M6 8.5C6 9.60457 5.10457 10.5 4 10.5C2.89543 10.5 2 9.60457 2 8.5C2 7.39543 2.89543 6.5 4 6.5C5.10457 6.5 6 7.39543 6 8.5Z" fill="#1E3B1B"/>
<path d="M16 18.5V15.5C16 14.4459 15.7282 13.4552 15.2507 12.5943C15.4902 12.5327 15.7413 12.5 16 12.5C17.6569 12.5 19 13.8431 19 15.5V18.5H16Z" fill="#1E3B1B"/>
<path d="M4.74926 12.5943C4.27185 13.4552 4 14.4459 4 15.5V18.5H1V15.5C1 13.8431 2.34315 12.5 4 12.5C4.25871 12.5 4.50977 12.5327 4.74926 12.5943Z" fill="#1E3B1B"/>
</svg>
